<?xml version="1.0" encoding="UTF-8"?>
<svg width="133px" height="109px" viewBox="0 0 133 109" version="1.1" xmlns="http://www.w3.org/2000/svg" xmlns:xlink="http://www.w3.org/1999/xlink">
    <!-- Generator: Sketch 60 (88103) - https://sketch.com -->
    <title>logo-mtelgon-roses-color</title>
    <desc>Created with Sketch.</desc>
    <defs>
        <polygon id="path-1" points="0 0.679016393 17.8793443 0.679016393 17.8793443 36.0986885 0 36.0986885"></polygon>
        <polygon id="path-3" points="0 0.829416667 5.37208333 0.829416667 5.37208333 6.66666667 0 6.66666667"></polygon>
        <polygon id="path-5" points="0.558416667 0.829416667 6.74841667 0.829416667 6.74841667 6.66666667 0.558416667 6.66666667"></polygon>
        <polygon id="path-7" points="0.1355 0.829416667 5.508 0.829416667 5.508 6.66666667 0.1355 6.66666667"></polygon>
        <polygon id="path-9" points="0 6.67073333 52.29 6.67073333 52.29 0.833233333 0 0.833233333"></polygon>
        <polygon id="path-11" points="0 6.67073333 52.29 6.67073333 52.29 0.833233333 0 0.833233333"></polygon>
        <polygon id="path-13" points="0 6.67073333 52.29 6.67073333 52.29 0.833233333 0 0.833233333"></polygon>
        <polygon id="path-15" points="0.339298457 0.0542274543 16.560314 0.0542274543 16.560314 39 0.339298457 39"></polygon>
        <polygon id="path-17" points="0.5378 0.0143 15.3668 0.0143 15.3668 38 0.5378 38"></polygon>
        <polygon id="path-19" points="0.464204169 0.224927536 30.0444203 0.224927536 30.0444203 21.0144928 0.464204169 21.0144928"></polygon>
    </defs>
    <g id="Page-1" stroke="none" stroke-width="1" fill="none" fill-rule="evenodd">
        <g id="logo-mtelgon-roses-color" transform="translate(-12.000000, 0.000000)">
            <g id="Group-45" transform="translate(0.000000, 59.000000)">
                <g id="Group-44">
                    <path d="M40.9972131,47.7557377 L11.7513115,46.6516393 L40.9972131,45.5442623 C41.6103279,45.5204918 42.1185246,45.9991803 42.1431148,46.6106557 C42.1685246,47.2180328 41.6922951,47.7360656 41.0808197,47.7557377 L40.9972131,47.7557377 Z" id="Fill-1" fill="#5D5353" fill-rule="nonzero"></path>
                    <g id="Group-5" opacity="0" transform="translate(0.000000, 3.199672)">
                        <g id="Fill-3-Clipped">
                            <mask id="mask-2" fill="white">
                                <use xlink:href="#path-1"></use>
                            </mask>
                            <g id="path-1"></g>
                            <path d="M8.92032787,21.9806557 C10.2686885,15.1929508 11.6145902,8.29540984 12.9572131,1.29786885 C14.5719672,1.08393443 16.1867213,0.877377049 17.8022951,0.679016393 C17.8277049,12.4847541 17.8531148,24.2913115 17.8793443,36.0986885 L13.4785246,36.0986885 C13.6170492,28.4913115 13.7555738,20.8716393 13.8932787,13.2396721 C12.8063934,18.8462295 11.7170492,24.3863934 10.6260656,29.8552459 C9.4957377,29.8839344 8.36622951,29.912623 7.23590164,29.9421311 C6.13098361,24.6027869 5.02770492,19.3388525 3.92770492,14.1560656 C4.08508197,21.4544262 4.24245902,28.7691803 4.40065574,36.0986885 L-0.000163934426,36.0986885 L-0.000163934426,3.18229508 C1.60967213,2.92737705 3.22032787,2.67983607 4.83180328,2.4404918 C6.19,8.83311475 7.55393443,15.3503279 8.92032787,21.9806557" id="Fill-3" fill="#9C875B" fill-rule="nonzero" mask="url(#mask-2)"></path>
                        </g>
                    </g>
                    <path d="M26.9903279,34.8808299 C27.7395082,34.8704918 28.4878689,34.8614754 29.2362295,34.852459 C30.3977049,34.8385246 30.9763934,34.1131148 30.9723381,32.6754098 C30.9518033,24.8032787 30.9321311,16.9319672 30.9108197,9.05901639 C30.907541,7.62213115 30.2485246,6.95737705 28.9354098,7.07459016 C28.2485246,7.13606557 27.5608197,7.19918033 26.8739344,7.26229508 C25.5911475,7.38114754 24.952623,8.15163934 24.9558766,9.56229508 C24.9755738,17.3040984 24.9944262,25.045082 25.0140984,32.7852459 C25.017377,34.1983607 25.6755738,34.8959016 26.9903279,34.8808299 L26.9903279,34.8808299 Z M25.9477049,39.2983839 C22.4009836,39.2901639 20.6247541,37.2663934 20.6157377,33.2237705 C20.5968852,25.3729508 20.5788525,17.5229508 20.5607506,9.67295082 C20.5518033,5.6 22.2993443,3.34262295 25.81,2.95655738 C27.2132787,2.8057377 28.6181967,2.66065574 30.0231148,2.52131148 C33.5354098,2.1704918 35.3001639,4.15245902 35.3108197,8.41229508 C35.3321311,16.5967213 35.3534426,24.7811475 35.3748495,32.9655738 C35.3854098,37.1942623 33.6181967,39.3040984 30.0731148,39.2983839 L25.9477049,39.2983839 Z" id="Fill-6" fill="#9C875B" fill-rule="nonzero" opacity="0"></path>
                    <path d="M52.3661475,0.796721311 C52.3866393,11.1991803 52.4079508,21.602459 52.4293307,32.004918 C52.4382787,36.8721311 50.6710656,39.302459 47.1259836,39.298371 L43.4128689,39.298371 C39.8981148,39.2918033 38.135,36.9065574 38.1227049,32.1418033 C38.0964754,22.0237705 38.0710656,11.9081967 38.0448361,1.79098361 C39.5128689,1.66803279 40.9809016,1.55245902 42.4489344,1.44262295 C42.4743443,11.7065574 42.4989344,21.9696721 42.5243443,32.2336066 C42.5284426,33.8852459 43.1727049,34.7040984 44.4563115,34.6934426 C45.0522131,34.6893443 45.6481148,34.6836066 46.2440164,34.6786885 C47.4366393,34.6696721 48.0309016,33.8319672 48.0268033,32.1622951 C48.0038525,21.795082 47.9809016,11.4278689 47.9579508,1.05983607 C49.4268033,0.966393443 50.8964754,0.878688525 52.3661475,0.796721311" id="Fill-8" fill="#9C875B" fill-rule="nonzero" opacity="0"></path>
                    <path d="M64.5211475,19.1296721 C64.5129508,12.8411475 64.5047541,6.55344262 64.497377,0.265737705 C65.9686885,0.219016393 67.4391803,0.178032787 68.9104918,0.143606557 C68.9227869,13.1952459 68.935082,26.2468852 68.947377,39.2977049 L64.5465574,39.2977049 C64.5432787,36.7067213 64.54,34.114918 64.5367213,31.5239344 C62.9539344,25.6083607 61.3703279,19.7181967 59.7842623,13.8616393 C59.797377,22.3403279 59.8113115,30.8198361 59.8244262,39.2977049 L55.4236066,39.2977049 C55.3998361,26.412459 55.3760656,13.5255738 55.3514754,0.639508197 C56.8219672,0.566557377 58.292459,0.499344262 59.7629508,0.438688525 C61.3506557,6.63377049 62.9367213,12.867377 64.5211475,19.1296721" id="Fill-10" fill="#9C875B" fill-rule="nonzero" opacity="0"></path>
                    <path d="M78.9346721,4.76614754 L78.9404098,39.2981148 L74.5395902,39.2981148 C74.5338525,27.7989344 74.5281148,16.2981148 74.522377,4.79893443 C73.112541,4.8145082 71.7027049,4.835 70.2936885,4.86040984 C70.2920492,3.27844262 70.2904098,1.69565574 70.2895902,0.11204918 C74.5805738,0.0235245902 78.872377,-0.0133606557 83.165,0.00385245902 C83.1641803,1.59155738 83.1641803,3.17844262 83.1641803,4.76532787 C81.7543443,4.76040984 80.3445082,4.76040984 78.9346721,4.76614754" id="Fill-12" fill="#9C875B" fill-rule="nonzero" opacity="0"></path>
                    <path d="M90.7214754,39.2980328 C90.7313115,26.2291803 90.7411475,13.1586885 90.7509836,0.0898360656 C94.3985246,0.157868852 98.0460656,0.26442623 101.691967,0.409508197 C101.689508,1.98 101.687049,3.55131148 101.68459,5.12180328 C99.51,5.04557377 97.3345902,4.98163934 95.16,4.93 C95.155082,8.88737705 95.1509836,12.8455738 95.1468852,16.8037705 C97.0747541,16.8340984 99.0034426,16.8701639 100.932131,16.9119672 L100.924754,21.6283607 C98.9977049,21.5947541 97.0698361,21.5660656 95.1419672,21.5422951 C95.1370492,25.8816393 95.1321311,30.2201639 95.1272131,34.5595082 C97.2977049,34.5668852 99.4690164,34.575082 101.639508,34.5857377 C101.637049,36.1562295 101.63459,37.727541 101.632131,39.2980328 L90.7214754,39.2980328 Z" id="Fill-14" fill="#9C875B" fill-rule="nonzero" opacity="0"></path>
                    <path d="M114.101311,39.2980328 L103.648852,39.2980328 C103.670164,26.3636066 103.691475,13.4283607 103.713607,0.493114754 C105.184098,0.557868852 106.65459,0.628360656 108.124262,0.705409836 C108.102131,12.0103279 108.08082,23.3160656 108.058689,34.6218033 C110.076721,34.6340984 112.093934,34.6480328 114.111967,34.6644262 C114.107869,36.2078689 114.10459,37.7529508 114.101311,39.2980328" id="Fill-16" fill="#9C875B" fill-rule="nonzero" opacity="0"></path>
                    <path d="M122.295656,25.5061475 C122.298934,23.9856557 122.303033,22.4643443 122.307131,20.9438525 C124.539098,21.029918 126.770246,21.1241803 129.001393,21.225 C128.98582,27.2495902 128.969426,33.2741803 128.953852,39.2979677 L120.335,39.2979677 C116.943197,39.3028689 115.252213,37.1577869 115.261158,32.8659836 C115.280082,24.467623 115.299754,16.0692623 115.318607,7.67090164 C115.328443,3.30942623 117.032541,1.23401639 120.428443,1.49467213 C121.438279,1.57172131 122.447295,1.65040984 123.456311,1.73401639 C127.186639,2.04877049 129.044836,4.38401639 129.033465,8.67745902 C129.030082,10.020082 129.026803,11.3627049 129.023525,12.7053279 C127.556311,12.6077869 126.089098,12.5135246 124.621885,12.425 C124.624344,11.3127049 124.627623,10.1987705 124.630082,9.08647541 C124.635,7.27909836 124.01041,6.32663934 122.756311,6.23647541 C122.389918,6.2102459 122.022705,6.18483607 121.655492,6.15942623 C120.371066,6.07008197 119.726803,6.94385246 119.721885,8.77172131 L119.666148,31.9692623 C119.66123,33.7979508 120.300574,34.7168033 121.58418,34.7290984 C122.577623,34.7381148 123.571066,34.7479508 124.564508,34.7577869 C124.572705,31.6971311 124.580082,28.6356557 124.588279,25.575 C123.823525,25.5520492 123.05959,25.5282787 122.295656,25.5061475" id="Fill-18" fill="#9C875B" fill-rule="nonzero" opacity="0"></path>
                    <path d="M137.536803,34.9107377 C138.285984,34.9205738 139.034344,34.9304098 139.782705,34.9415738 C140.94418,34.9566393 141.526148,34.2681148 141.529426,32.8746721 C141.547459,25.2377869 141.564672,17.602541 141.582729,9.96647541 C141.585984,8.57467213 140.931066,7.80827869 139.61959,7.6754918 C138.932705,7.60663934 138.24582,7.53942623 137.558934,7.47303279 C136.276967,7.3492623 135.634344,8.00172131 135.631066,9.42139344 C135.610574,17.200082 135.590902,24.9771311 135.572011,32.755 C135.567951,34.1763115 136.222869,34.8935246 137.536803,34.9107377 L137.536803,34.9107377 Z M136.472049,39.2984733 C132.926148,39.305 131.159754,37.2172951 131.170315,33.0336885 C131.190902,24.9386066 131.212213,16.8435246 131.233525,8.74762295 C131.24418,4.53368852 133.007295,2.58860656 136.517131,2.97139344 C137.92123,3.12221311 139.325328,3.27877049 140.728607,3.44106557 C144.235164,3.85745902 145.983525,6.10090164 145.975385,10.1115574 C145.958934,17.8459836 145.943361,25.5795902 145.927787,33.3140164 C145.91959,37.2951639 144.143361,39.2902459 140.597459,39.2984733 L136.472049,39.2984733 Z" id="Fill-20" fill="#9C875B" fill-rule="nonzero" opacity="0"></path>
                    <path d="M115.492541,47.7557377 L144.739262,46.6516393 L115.492541,45.5442623 C114.879426,45.5204918 114.37123,45.9991803 114.346639,46.6106557 C114.32123,47.2180328 114.797459,47.7360656 115.408934,47.7557377 L115.492541,47.7557377 Z" id="Fill-42" fill="#5D5353" fill-rule="nonzero"></path>
                    <g id="Group-22" transform="translate(53.000000, 43.000000)">
                        <g id="Group-3" transform="translate(0.000000, 0.004067)">
                            <g id="Fill-1-Clipped">
                                <mask id="mask-4" fill="white">
                                    <use xlink:href="#path-3"></use>
                                </mask>
                                <g id="path-5"></g>
                                <path d="M5.36375,1.79358333 L4.52125,2.79108333 C4.14541667,2.33358333 3.58958333,2.04775 3.08291667,2.04775 C2.17541667,2.04775 1.48875,2.76691667 1.48875,3.70691667 C1.48875,4.66358333 2.17541667,5.39108333 3.08291667,5.39108333 C3.56541667,5.39108333 4.12125,5.13025 4.52125,4.72108333 L5.37208333,5.62025 C4.75791667,6.25025 3.85125,6.66691667 3.00875,6.66691667 C1.28375,6.66691667 -0.000416666667,5.39941667 -0.000416666667,3.72275 C-0.000416666667,2.07191667 1.31708333,0.829416667 3.05791667,0.829416667 C3.90875,0.829416667 4.79125,1.20525 5.36375,1.79358333" id="Fill-1" fill="#5D5353" fill-rule="nonzero" mask="url(#mask-4)"></path>
                            </g>
                        </g>
                        <g id="Group-6" transform="translate(5.000000, 0.004067)">
                            <g id="Fill-4-Clipped">
                                <mask id="mask-6" fill="white">
                                    <use xlink:href="#path-5"></use>
                                </mask>
                                <g id="path-7"></g>
                                <path d="M2.04675,3.74025 C2.04675,4.70441667 2.79091667,5.44858333 3.66508333,5.44858333 C4.54841667,5.44858333 5.25175,4.70441667 5.25175,3.74025 C5.25175,2.77525 4.54841667,2.04775 3.66508333,2.04775 C2.78258333,2.04775 2.04675,2.77525 2.04675,3.74025 M6.74841667,3.73191667 C6.74841667,5.39941667 5.42341667,6.66691667 3.64925,6.66691667 C1.88341667,6.66691667 0.558416667,5.40775 0.558416667,3.73191667 C0.558416667,2.06358333 1.88341667,0.829416667 3.64925,0.829416667 C5.42341667,0.829416667 6.74841667,2.07191667 6.74841667,3.73191667" id="Fill-4" fill="#5D5353" fill-rule="nonzero" mask="url(#mask-6)"></path>
                            </g>
                        </g>
                        <polygon id="Fill-7" fill="#5D5353" fill-rule="nonzero" points="16.3980833 5.3874 16.3980833 6.60573333 12.5139167 6.60573333 12.5139167 0.8824 13.96975 0.8824 13.96975 5.3874"></polygon>
                        <polygon id="Fill-9" fill="#5D5353" fill-rule="nonzero" points="20.97575 5.3874 20.97575 6.60573333 17.0915833 6.60573333 17.0915833 0.8824 18.5474167 0.8824 18.5474167 5.3874"></polygon>
                        <polygon id="Fill-11" fill="#5D5353" fill-rule="nonzero" points="23.125 2.02715 23.125 3.16298333 25.855 3.16298333 25.855 4.30798333 23.125 4.30798333 23.125 5.46048333 26.2391667 5.46048333 26.2391667 6.60548333 21.6691667 6.60548333 21.6691667 0.88215 26.15 0.88215 26.15 2.02715"></polygon>
                        <g id="Group-15" transform="translate(26.666667, 0.004067)">
                            <g id="Fill-13-Clipped">
                                <mask id="mask-8" fill="white">
                                    <use xlink:href="#path-7"></use>
                                </mask>
                                <g id="path-9"></g>
                                <path d="M5.49966667,1.79358333 L4.65716667,2.79108333 C4.28133333,2.33358333 3.7255,2.04775 3.21883333,2.04775 C2.31133333,2.04775 1.62466667,2.76691667 1.62466667,3.70691667 C1.62466667,4.66358333 2.31133333,5.39108333 3.21883333,5.39108333 C3.70133333,5.39108333 4.25716667,5.13025 4.65716667,4.72108333 L5.508,5.62025 C4.89383333,6.25025 3.98716667,6.66691667 3.14466667,6.66691667 C1.41966667,6.66691667 0.1355,5.39941667 0.1355,3.72275 C0.1355,2.07191667 1.453,0.829416667 3.19383333,0.829416667 C4.04466667,0.829416667 4.92716667,1.20525 5.49966667,1.79358333" id="Fill-13" fill="#5D5353" fill-rule="nonzero" mask="url(#mask-8)"></path>
                            </g>
                        </g>
                        <polygon id="Fill-16" fill="#5D5353" fill-rule="nonzero" points="35.4834167 2.05156667 35.4834167 6.60573333 34.0284167 6.60573333 34.0284167 2.05156667 32.31925 2.05156667 32.31925 0.874066667 37.2084167 0.874066667 37.2084167 2.05156667"></polygon>
                        <g id="Fill-18-Clipped">
                            <mask id="mask-10" fill="white">
                                <use xlink:href="#path-9"></use>
                            </mask>
                            <g id="path-11"></g>
                            <polygon id="Fill-18" fill="#5D5353" fill-rule="nonzero" mask="url(#mask-10)" points="37.8291667 6.60573333 39.285 6.60573333 39.285 0.8824 37.8291667 0.8824"></polygon>
                        </g>
                        <g id="Fill-20-Clipped">
                            <mask id="mask-12" fill="white">
                                <use xlink:href="#path-11"></use>
                            </mask>
                            <g id="path-11"></g>
                            <path d="M41.5405,3.74431667 C41.5405,4.70848333 42.2846667,5.45265 43.1588333,5.45265 C44.0421667,5.45265 44.7455,4.70848333 44.7455,3.74431667 C44.7455,2.77931667 44.0421667,2.05181667 43.1588333,2.05181667 C42.2763333,2.05181667 41.5405,2.77931667 41.5405,3.74431667 M46.2421667,3.73598333 C46.2421667,5.40348333 44.9171667,6.67098333 43.143,6.67098333 C41.3771667,6.67098333 40.0521667,5.41181667 40.0521667,3.73598333 C40.0521667,2.06765 41.3771667,0.833483333 43.143,0.833483333 C44.9171667,0.833483333 46.2421667,2.07598333 46.2421667,3.73598333" id="Fill-20" fill="#5D5353" fill-rule="nonzero" mask="url(#mask-12)"></path>
                        </g>
                        <g id="Fill-21-Clipped">
                            <mask id="mask-14" fill="white">
                                <use xlink:href="#path-13"></use>
                            </mask>
                            <g id="path-11"></g>
                            <polygon id="Fill-21" fill="#5D5353" fill-rule="nonzero" mask="url(#mask-14)" points="51.0058333 6.60565 48.3733333 3.08148333 48.3733333 6.60565 47.0075 6.60565 47.0075 0.882316667 48.2916667 0.882316667 50.9325 4.41398333 50.9325 0.882316667 52.29 0.882316667 52.29 6.60565"></polygon>
                        </g>
                    </g>
                </g>
            </g>
            <g id="Group-13" transform="translate(42.000000, 59.000000)">
                <path d="M0.0001,39.1542 L0.0001,3.0612 C3.9631,2.4332 7.9381,1.9022 11.9211,1.4662 C11.9221,2.9882 11.9241,4.5102 11.9261,6.0332 C9.5491,6.2612 7.1751,6.5202 4.8041,6.8082 C4.8061,10.5342 4.8091,14.2582 4.8111,17.9832 C6.9181,17.8152 9.0261,17.6632 11.1351,17.5262 C11.1371,19.0462 11.1391,20.5642 11.1411,22.0832 C9.0311,22.1912 6.9221,22.3112 4.8141,22.4432 C4.8171,26.5272 4.8201,30.6112 4.8221,34.6952 C7.2011,34.6552 9.5801,34.6192 11.9591,34.5882 C11.9611,36.1102 11.9621,37.6322 11.9641,39.1542 L0.0001,39.1542 Z" id="Fill-1" fill="#9C875C"></path>
                <path d="M25.6373,39.1542 L14.1753,39.1542 C14.1603,26.5142 14.1453,13.8742 14.1303,1.2332 C15.7373,1.0722 17.3453,0.9262 18.9553,0.7962 C18.9693,12.0332 18.9823,23.2692 18.9953,34.5072 C21.2073,34.4852 23.4203,34.4672 25.6323,34.4522 C25.6343,36.0192 25.6353,37.5872 25.6373,39.1542" id="Fill-3" fill="#9C875C"></path>
                <path d="M34.5787,24.8192 C34.5787,23.2392 34.5777,21.6582 34.5777,20.0782 C37.0267,20.0552 39.4767,20.0512 41.9267,20.0642 C41.9257,26.4272 41.9247,32.7912 41.9227,39.1542 L32.4727,39.1542 C28.7527,39.1512 26.8907,36.9662 26.8867,32.6032 C26.8787,24.0482 26.8717,15.4942 26.8636936,6.9402 C26.8597,2.5092 28.7217,0.1752 32.4527,0.0682 C33.5607,0.0382 34.6707,0.0152 35.7807,0.0012 C39.8807,-0.0488 41.9317,2.2722 41.9297015,6.8102 C41.9297015,8.2282 41.9297015,9.6462 41.9287,11.0642 C40.3167,11.0512 38.7047,11.0502 37.0927,11.0602 C37.0927,9.8962 37.0917,8.7322 37.0917,7.5692 C37.0917,5.6792 36.4027,4.7362 35.0247,4.7562 C34.6217,4.7612 34.2187,4.7682 33.8147,4.7752 C32.4047,4.8032 31.6997,5.7672 31.7007,7.6522 C31.7047,15.6312 31.7097,23.6122 31.7147,31.5912 C31.7157,33.4782 32.4197,34.4182 33.8277,34.4152 C34.9167,34.4122 36.0067,34.4102 37.0967,34.4092 C37.0957,31.2082 37.0957,28.0072 37.0947,24.8062 C36.2557,24.8092 35.4177,24.8132 34.5787,24.8192" id="Fill-5" fill="#9C875C"></path>
                <g id="Group-9" transform="translate(44.000000, 0.154300)">
                    <mask id="mask-16" fill="white">
                        <use xlink:href="#path-15"></use>
                    </mask>
                    <g id="Clip-8"></g>
                    <path d="M7.3273,34.289 C8.1483,34.294 8.9703,34.3 9.7923,34.3060634 C11.0643,34.314 11.7033,33.565 11.7043,32.06 C11.7143,23.81 11.7233,15.56 11.7313042,7.311 C11.7333,5.806 11.0133,5.009 9.5693,4.935 C8.8133,4.896 8.0583,4.861 7.3033,4.829 C5.8923,4.768 5.1863,5.507 5.1853,7.026 C5.1803,15.35 5.1743,23.674 5.16729896,31.997 C5.1663,33.518 5.8863,34.281 7.3273,34.289 L7.3273,34.289 Z M6.1673,39.000003 C2.2793,39.003 0.3373,36.786 0.339298457,32.352 C0.3423,23.762 0.3463,15.17 0.3483,6.578 C0.3503,2.115 2.2843,-0.104 6.1483,0.063 C7.6933,0.131 9.2383,0.213 10.7823,0.31 C14.6413,0.561 16.5663,2.935 16.560314,7.292 C16.5513,15.694 16.5403,24.097 16.5303,32.499 C16.5243,36.827 14.5793,38.994 10.6913,39.000003 L6.1673,39.000003 Z" id="Fill-7" fill="#9C875C" mask="url(#mask-16)"></path>
                </g>
                <g id="Group-12" transform="translate(63.000000, 1.154300)">
                    <mask id="mask-18" fill="white">
                        <use xlink:href="#path-17"></use>
                    </mask>
                    <g id="Clip-11"></g>
                    <path d="M10.5538,18.9823 C10.5578,13.0523 10.5618,7.1243 10.5658,1.1943 C12.1678,1.4163 13.7688,1.6543 15.3668,1.9073 L15.3668,38.0003 L10.5408,38.0003 C10.5428,35.5563 10.5438,33.1133 10.5458,30.6693 C8.8248,25.0343 7.1078,19.2943 5.3898,13.4743 C5.3808,21.6493 5.3718,29.8253 5.3638,38.0003 L0.5378,38.0003 C0.5538,25.3373 0.5698,12.6763 0.5838,0.0143 C2.1928,0.1713 3.7988,0.3443 5.4038,0.5333 C7.1188,6.7713 8.8358,12.9293 10.5538,18.9823" id="Fill-10" fill="#9C875C" mask="url(#mask-18)"></path>
                </g>
            </g>
            <g id="Group-16" transform="translate(54.000000, 0.000000)">
                <path d="M33.124058,43.4453623 C34.6849275,42.0714493 36.3392754,40.8634783 37.69,39.3801449 C41.1602899,35.5678261 41.9392754,30.9757971 41.0928986,26.0337681 C40.1044928,20.2576812 37.5356522,15.1062319 34.5834783,10.1381159 C32.8073913,7.15188406 30.8501449,4.27434783 28.9733333,1.34753623 C28.8023188,1.08014493 28.6269565,0.814202899 28.2573913,0.247536232 C29.9189855,0.156231884 31.3682609,0.0439130435 32.8197101,0.00333333333 C35.3827536,-0.0698550725 37.5972464,1.19028986 39.9407246,1.94318841 C45.3450725,3.67797101 47.1653623,6.19101449 47.2124638,11.8772464 C47.2168116,12.3598551 47.2907246,12.8613043 47.1878261,13.3228986 C46.9407246,14.4402899 47.3827536,15.0997101 48.4197101,15.4214493 C49.7327536,15.8294203 51.0349275,16.2975362 52.3747826,16.5823188 C53.0856522,16.7330435 53.2950725,16.9881159 53.3718841,17.6801449 C53.7943478,21.4605797 52.69,24.9388406 51.3537681,28.377971 C50.4342029,30.7453623 49.4523188,33.0902899 48.59,35.477971 C47.6726087,38.0149275 47.2457971,40.646087 47.5523188,43.3489855 C47.6276812,44.0113043 47.4001449,44.4098551 46.9218841,44.8344928 C42.3624638,48.8765217 36.0878261,47.0555072 33.124058,43.4453623" id="Fill-1" fill="#A32231" fill-rule="nonzero"></path>
                <path d="M29.9678986,9.91673913 C32.7548551,11.8065942 34.730942,14.3573188 36.2765942,17.252971 C38.449058,21.3218116 39.749058,25.6355797 39.5439855,30.2877536 C39.3671739,34.3080435 38.030942,37.7863043 34.407029,40.0094928 C31.5997826,41.7312319 28.5678986,41.8123913 25.4497826,41.1667391 C22.9961594,40.6594928 20.5447101,40.1392029 18.088913,39.6421014 C17.7142754,39.5652899 17.3084783,39.5022464 16.938913,39.5623913 C15.8606522,39.7384783 15.4251449,39.2471739 15.1519565,38.2464493 C14.3128261,35.1725362 15.0939855,32.8319565 17.9360145,31.2841304 C19.9563043,30.1848551 22.1693478,29.4384783 24.2983333,28.537029 C25.5113768,28.0232609 26.7599275,27.5812319 27.9345652,26.9921014 C32.7584783,24.5732609 34.3251449,20.7797826 32.5273188,15.7000725 C31.8976087,13.9196377 31.0063043,12.2312319 30.2331159,10.5022464 C30.1461594,10.3058696 30.0563043,10.1116667 29.9678986,9.91673913" id="Fill-3" fill="#A32231" fill-rule="nonzero"></path>
                <g id="Group-7" transform="translate(0.724638, 28.916159)">
                    <g id="Fill-5-Clipped">
                        <mask id="mask-20" fill="white">
                            <use xlink:href="#path-19"></use>
                        </mask>
                        <g id="path-13"></g>
                        <path d="M12.7096377,12.0828986 C16.9045652,12.8553623 21.0907971,13.6988406 25.3060145,14.3633333 C26.8052899,14.6002899 28.3734058,14.4017391 30.0444203,14.4017391 C29.4726812,15.0589855 28.9386232,15.795942 28.2842754,16.4031884 C25.9755797,18.545942 23.1661594,19.6901449 20.1284783,20.3452174 C16.0081884,21.2350725 11.8857246,21.2698551 7.78572464,20.256087 C7.34007246,20.1466667 6.83282609,19.7147826 6.62847826,19.2981159 C5.66688406,17.3343478 4.90528986,15.2676812 3.8676087,13.3481159 C3.06398551,11.864058 1.93789855,10.5582609 0.998768116,9.14376812 C0.732826087,8.74304348 0.418333333,8.21550725 0.469782609,7.78797101 C0.766884058,5.34231884 1.16688406,2.90971014 1.56978261,0.224927536 C4.77847826,2.35681159 8.1234058,3.65536232 10.5393478,6.34231884 C11.811087,7.75681159 12.5067391,9.41913043 12.5922464,11.3278261 C12.600942,11.5205797 12.6081884,11.7133333 12.6277536,11.9046377 C12.6342754,11.9633333 12.6784783,12.0184058 12.7096377,12.0828986" id="Fill-5" fill="#A32231" fill-rule="nonzero" mask="url(#mask-20)"></path>
                    </g>
                </g>
                <path d="M17.3603623,18.5515217 C15.627029,16.6797826 16.4147101,13.2457246 18.535,12.4341304 C18.8067391,12.3297826 19.077029,12.0978986 19.2400725,11.8536957 C20.0342754,10.660942 21.835,10.037029 23.1378986,10.6145652 C23.485,10.768913 23.7886232,11.129058 24.0002174,11.4660145 C25.4407971,13.7551449 25.7321014,16.3355797 25.8763043,18.9594928 C25.9734058,20.7254348 26.1697826,22.4848551 26.2632609,24.2493478 C26.2821014,24.6044203 26.1451449,25.1261594 25.8915217,25.3065942 C24.8523913,26.0478986 23.7922464,26.8007971 22.6407971,27.3326812 C21.1857246,28.0044203 19.6407971,28.4855797 18.1183333,28.9978986 C17.8821014,29.0768841 17.4502174,28.9826812 17.2835507,28.8044203 C12.6900725,23.9218116 11.8176087,16.4471739 14.800942,11.4594928 C16.9857246,7.8065942 20.4806522,6.53992754 24.177029,7.18485507 C26.7052899,7.62615942 28.2596377,9.43557971 29.3393478,11.6087681 C30.9436957,14.8363043 31.3864493,18.1754348 29.7328261,21.5384783 C29.3494928,22.318913 28.7219565,22.9805072 28.0748551,23.8805072 C27.2792029,21.9565942 27.2494928,20.1921014 27.0726812,18.4507971 C26.8973188,16.7254348 26.7907971,14.9819565 26.4567391,13.2855797 C26.0494928,11.2232609 24.8625362,9.64282609 22.8987681,8.75949275 C22.5473188,8.60224638 22.0777536,8.53485507 21.7074638,8.62036232 C17.3719565,9.62905797 14.5067391,14.6297826 15.8241304,18.8486232 C16.2465942,20.2000725 16.9842754,21.3551449 18.3712319,21.8123913 C20.4371739,22.495 21.6219565,22.4725362 22.5306522,20.3225362 C23.2299275,18.668913 23.7944203,17.0131159 23.6103623,15.1906522 C23.5263043,14.3551449 23.2741304,13.5754348 22.3654348,13.3022464 C21.5118116,13.0457246 20.7081884,13.1312319 20.1023913,13.9123913 C19.9994928,14.0457246 19.8147101,14.1551449 19.6473188,14.1964493 C18.0886232,14.5826812 17.4342754,15.3507971 17.3632609,16.9355797 C17.342971,17.4044203 17.3603623,17.8754348 17.3603623,18.5515217" id="Fill-8" fill="#A32231" fill-rule="nonzero"></path>
                <path d="M31.0994203,6.7684058 C29.0624638,5.57855072 27.0363768,4.66115942 24.7168116,4.48434783 C21.1305797,4.21043478 18.0457971,5.39449275 15.4849275,7.84304348 C10.6414493,12.4771014 9.74362319,19.1242029 13.1189855,25.1771014 C13.8653623,26.5169565 14.8095652,27.745942 15.6182609,29.23 C14.6928986,28.8749275 13.7175362,28.614058 12.8515942,28.1481159 C9.84362319,26.5263768 8.56826087,23.722029 7.93565217,20.556087 C7.19507246,16.8502899 7.44434783,13.1198551 7.8073913,9.39376812 C7.88275362,8.62565217 8.09362319,7.85898551 8.07405797,7.09521739 C8.04,5.74594203 8.65521739,4.93652174 9.78057971,4.25028986 C12.2356522,2.75463768 14.705942,1.33144928 17.5276812,0.629275362 C22.105942,-0.509855072 25.9936232,0.603913043 29.1110145,4.18434783 C29.8233333,5.00173913 30.4392754,5.90463768 31.0994203,6.7684058" id="Fill-10" fill="#A32231" fill-rule="nonzero"></path>
                <path d="M12.7832609,31.1860145 C7.0934058,31.3425362 1.20137681,26.3113768 0.165869565,20.6447101 C-0.698623188,15.9142754 1.91224638,11.5178986 5.89050725,9.26644928 C4.34413043,17.7468841 6.00862319,25.2178986 12.7832609,31.1860145" id="Fill-12" fill="#A32231" fill-rule="nonzero"></path>
                <path d="M20.8943478,20.8167391 C19.6957971,19.9196377 18.705942,19.0783333 18.3769565,17.6971739 C18.0610145,16.3703623 18.6501449,15.702971 19.99,15.7623913 C20.2697101,15.7747101 20.5552174,15.4573188 20.8501449,15.318913 C21.2298551,15.1421014 21.7204348,14.771087 21.9813043,14.8884783 C22.2762319,15.0218116 22.5008696,15.5928261 22.5291304,15.9899275 C22.6573913,17.7565942 21.7262319,19.1834058 20.8943478,20.8167391" id="Fill-14" fill="#9C875B" fill-rule="nonzero"></path>
            </g>
        </g>
    </g>
</svg>